<svg width="82" height="100" viewBox="0 0 82 100" xmlns="http://www.w3.org/2000/svg"><g fill="none" fill-rule="evenodd"><g fill="#000"><g><g><g><g><path d="M68.557 53.58C68.43 40.99 78.872 34.95 79.34 34.644c-5.87-8.54-15.01-9.713-18.264-9.846-7.774-.786-15.176 4.558-19.12 4.558-3.936 0-10.03-4.443-16.475-4.33-8.48.126-16.296 4.91-20.66 12.467-8.806 15.21-2.252 37.75 6.33 50.093 4.195 6.034 9.198 12.823 15.762 12.575 6.326-.25 8.713-4.074 16.36-4.074 7.65 0 9.797 4.074 16.49 3.946 6.802-.123 11.115-6.148 15.276-12.206 4.817-7.01 6.8-13.797 6.917-14.14-.148-.07-13.262-5.07-13.398-20.105zM55.983 16.628c3.48-4.207 5.84-10.053 5.198-15.872C56.16.958 50.078 4.08 46.47 8.282c-3.23 3.73-6.057 9.67-5.3 15.383 5.605.433 11.32-2.84 14.813-7.037z"/></g></g></g></g></g></g></svg>